<svg xmlns="http://www.w3.org/2000/svg" viewBox="0 0 170.56 40"><defs><style>.cls-1,.cls-2{fill:#fff;}.cls-1{fill-rule:evenodd;}.cls-3{fill:#7a2158;}.cls-4{fill:#bfbfbf;}.cls-5{font-size:28.24px;fill:#29abe2;font-family:Roboto-Light, Roboto;}</style></defs><title>logo-in8-dev0</title><g id="Camada_2" data-name="Camada 2"><g id="Camada_1-2" data-name="Camada 1"><path class="cls-1" d="M90.94,9.86h4.3V30.18h-.33c-1.41,0-2.82,0-4.23,0a.57.57,0,0,1-.53-.28L80.8,16.51a1.28,1.28,0,0,0-.33-.35v14H76.17V9.86l.35,0h4.23a.55.55,0,0,1,.51.27l9.35,13.2a1.23,1.23,0,0,0,.33.35Z"/><path class="cls-1" d="M66.86,9.86h4.8v20.3h-4.8Z"/><path class="cls-2" d="M113.66,20.91a5.44,5.44,0,0,0-2.35-1.37c-.11,0-.22-.09-.41-.16a2.11,2.11,0,0,1,.3-.12,3.32,3.32,0,0,0,1.7-.86,2.25,2.25,0,0,0,.79-1.76c0-1,0-2.05,0-3.08a3.43,3.43,0,0,0-2.26-3.33,8.51,8.51,0,0,0-1.63-.45A20.32,20.32,0,0,0,105,9.59a9.92,9.92,0,0,0-3,.56,3.52,3.52,0,0,0-2.42,3.45c0,1,0,2.05,0,3.08a2.17,2.17,0,0,0,.68,1.61,3.38,3.38,0,0,0,1.75,1l.3.09c-.07.08-.08.11-.09.11l-.28.09a5.39,5.39,0,0,0-2.37,1.4,2.13,2.13,0,0,0-.68,1.48c0,1.42,0,2.84.05,4.25a3.25,3.25,0,0,0,2,2.93,10.24,10.24,0,0,0,3.26.78,24.67,24.67,0,0,0,4.8,0,10.27,10.27,0,0,0,3.26-.77,3.3,3.3,0,0,0,2.07-3c.06-1.33,0-2.66,0-4A2.28,2.28,0,0,0,113.66,20.91Zm-9.48-7.21a1.2,1.2,0,0,1,1-1.05,6,6,0,0,1,2.88,0,1.35,1.35,0,0,1,1.06,1.4q0,1.31,0,2.62a1.36,1.36,0,0,1-1.18,1.43,5.94,5.94,0,0,1-2.69,0,1.37,1.37,0,0,1-1.12-1.42c0-.44,0-.87,0-1.31h0C104.11,14.8,104.1,14.24,104.17,13.69Zm5.39,12.52a1.11,1.11,0,0,1-1.08,1.19,10.94,10.94,0,0,1-3.77,0,1.1,1.1,0,0,1-1.06-1.17c0-.64,0-1.28,0-1.93h0c0-.62,0-1.24,0-1.86a1.14,1.14,0,0,1,1-1.1,18.75,18.75,0,0,1,2.4-.22,6.53,6.53,0,0,1,1.45.16,1.23,1.23,0,0,1,1.1,1.27C109.61,23.77,109.6,25,109.56,26.21Z"/><polygon class="cls-3" points="45.3 19.98 45.3 19.99 45.26 19.98 30.11 9.99 30.11 9.97 30.14 9.96 30.21 9.99 45.3 19.98"/><polygon class="cls-3" points="45.38 20 45.34 19.99 45.34 19.99 45.35 19.98 45.38 20"/><polygon class="cls-3" points="45.35 20.02 45.32 20.03 45.32 20 45.33 20 45.35 20.02"/><polygon class="cls-2" points="61.1 10.1 61.1 30.05 45.65 40 30.34 29.98 45.36 19.99 45.33 19.98 30.23 9.99 30.16 9.96 45.38 0 60.75 10.02 61.1 10.1"/><path class="cls-3" d="M45.37,20"/><polygon class="cls-3" points="45.33 20 45.35 20.02 45.32 20.03 45.32 20 45.33 20"/><line class="cls-3" x1="45.38" y1="19.83" x2="45.38" y2="19.83"/><polygon class="cls-4" points="45.3 19.98 45.3 19.99 30.2 29.98 30.11 29.95 30.11 9.95 30.14 9.96 30.21 9.99 45.3 19.98"/><polygon class="cls-2" points="15.03 20 30.14 9.97 30.14 29.97 30.09 30 15.03 20"/><polygon class="cls-3" points="14.98 20.02 14.98 20.01 14.98 20.02 30.11 30.01 30.11 30.03 30.1 30.04 30.05 30.01 14.98 20.02"/><polygon class="cls-3" points="14.9 20 14.93 20.01 14.94 20.01 14.93 20.02 14.9 20"/><polygon class="cls-3" points="14.93 19.98 14.95 19.97 14.95 20 14.95 20 14.93 19.98"/><polygon class="cls-4" points="0.1 29.91 0.1 9.95 15.1 0 30.17 10.02 15.04 20.01 15.01 20.02 30.07 30.01 30.13 30.04 14.9 40 0 29.98 0.1 29.91"/><path class="cls-3" d="M14.91,20"/><polygon class="cls-3" points="14.95 20 14.93 19.98 14.95 19.97 14.95 20 14.95 20"/><line class="cls-3" x1="14.9" y1="20.17" x2="14.9" y2="20.17"/><text class="cls-5" transform="translate(118.33 29.92)">DEV</text></g></g></svg>