<svg xmlns="http://www.w3.org/2000/svg" viewBox="0 0 50 50"><defs><style>.cls-1{opacity:0.5;}.cls-2{fill:#29abe2;}.cls-3{fill:#fff;}</style></defs><title>topo-pag0</title><g id="Camada_2" data-name="Camada 2"><g id="Camada_1-2" data-name="Camada 1"><g class="cls-1"><circle class="cls-2" cx="25" cy="25" r="25"/><path class="cls-3" d="M40.42,30a1.56,1.56,0,0,1-1.2-.56L25,12.58,10.77,29.45a1.56,1.56,0,0,1-2.39-2L23.81,9.15a1.61,1.61,0,0,1,2.39,0L41.62,27.44A1.56,1.56,0,0,1,40.42,30Z"/><path class="cls-3" d="M40.42,41.41a1.56,1.56,0,0,1-1.2-.56L25,24,10.77,40.85a1.56,1.56,0,0,1-2.39-2L23.81,20.55a1.61,1.61,0,0,1,2.39,0L41.62,38.84a1.56,1.56,0,0,1-1.19,2.57Z"/></g></g></g></svg>